<svg 
 viewBox="0 0 417.000000 111.000000"
 preserveAspectRatio="xMidYMid meet">
<g transform="translate(0.000000,111.000000) scale(0.100000,-0.100000)"
fill="#000000" stroke="none">
<path d="M1763 835 c-29 -13 -75 -45 -102 -70 -103 -96 -151 -208 -151 -348 0
-100 19 -145 82 -203 60 -55 100 -67 212 -62 97 4 157 25 217 75 l29 25 10
-27 c19 -50 57 -75 117 -75 61 0 95 15 136 58 25 26 33 29 76 24 27 -2 58 1
70 7 19 10 21 9 21 -12 0 -14 9 -36 21 -51 29 -37 89 -36 150 2 24 16 50 36
58 45 15 19 31 14 31 -12 0 -9 9 -27 20 -39 30 -32 94 -30 145 4 53 35 138
118 181 175 20 28 44 49 59 51 14 3 25 4 25 3 0 -2 -11 -27 -25 -57 -29 -62
-33 -142 -9 -176 23 -33 89 -30 142 6 66 44 137 116 190 192 l50 70 38 -52
c22 -31 37 -64 37 -81 0 -40 -34 -81 -70 -85 -25 -3 -32 2 -43 27 -16 41 -49
41 -78 1 -44 -59 -15 -100 71 -100 60 0 112 26 161 80 66 73 75 146 27 217
-24 36 -28 50 -24 88 5 43 4 45 -19 45 -74 0 -86 -9 -130 -94 -51 -97 -175
-229 -211 -224 -37 5 -33 60 13 188 22 62 40 117 40 122 0 4 -11 8 -24 8 -15
0 -33 -12 -51 -36 -24 -31 -79 -74 -96 -74 -3 0 -4 25 -1 56 l5 55 -44 -3
c-37 -3 -47 -8 -66 -37 -27 -40 -31 -106 -8 -131 14 -16 10 -23 -47 -79 -76
-75 -113 -98 -134 -80 -21 17 -18 46 21 176 20 65 38 126 41 136 6 20 -5 21
-75 6 l-51 -11 -36 -116 c-32 -102 -42 -123 -79 -160 -46 -46 -69 -48 -79 -6
-7 28 22 163 53 244 11 30 19 56 16 58 -2 2 -33 -1 -68 -8 l-64 -12 -26 -86
c-15 -48 -29 -100 -33 -117 -13 -57 -88 -110 -109 -76 -3 6 4 43 15 83 22 81
27 187 8 206 -21 21 -145 15 -195 -9 -79 -38 -153 -143 -153 -216 0 -23 -62
-84 -109 -108 -25 -13 -51 -16 -97 -13 -76 5 -125 38 -162 109 -21 39 -23 55
-20 136 4 83 7 98 46 176 69 139 164 205 215 149 36 -39 11 -149 -42 -189 -20
-16 -63 -17 -78 -2 -18 18 -33 0 -33 -41 0 -50 27 -70 94 -70 64 0 109 28 146
94 25 42 30 62 30 116 0 72 -17 109 -66 141 -44 28 -144 26 -211 -6z m547
-300 c0 -2 -9 -19 -20 -37 -25 -42 -27 -131 -3 -189 16 -41 16 -42 -6 -61 -59
-47 -101 -8 -101 92 0 102 55 200 112 200 10 0 18 -2 18 -5z"/>
<path d="M1368 738 c-50 -11 -53 -14 -83 -140 -5 -20 -13 -28 -30 -28 -15 0
-25 -8 -29 -22 -10 -39 -7 -68 8 -68 12 0 11 -13 -6 -72 -16 -57 -29 -82 -61
-116 -58 -59 -82 -55 -81 13 1 28 16 95 33 151 17 56 31 106 31 113 0 19 -43
12 -84 -12 l-38 -24 -24 24 c-50 50 -179 15 -249 -69 -31 -37 -75 -124 -75
-149 0 -31 -81 -65 -102 -43 -4 3 8 36 25 72 26 55 32 79 32 137 0 69 0 70
-28 73 -65 8 -117 -71 -117 -177 0 -34 5 -72 11 -83 10 -19 7 -26 -25 -55 -46
-43 -92 -45 -106 -7 -13 34 -6 73 41 212 43 127 45 122 -50 101 l-51 -11 -26
-81 c-14 -45 -28 -108 -31 -139 -7 -66 -43 -112 -84 -106 -47 7 -43 88 15 271
28 88 30 86 -62 67 l-48 -11 -29 -82 c-20 -59 -29 -108 -33 -174 l-4 -92 31
-32 c30 -29 36 -31 90 -27 43 3 66 11 91 30 l34 26 27 -29 c23 -25 34 -29 81
-29 60 0 95 17 148 73 26 28 37 34 47 25 8 -6 36 -9 68 -6 49 4 55 2 61 -16
13 -43 55 -76 96 -76 51 0 87 20 136 75 l39 45 5 -45 c7 -60 22 -75 73 -75 45
0 69 14 138 79 l37 35 0 -26 c0 -15 12 -40 26 -57 46 -55 122 -40 210 41 36
33 44 47 44 76 l0 35 -45 -42 c-64 -59 -116 -53 -114 13 0 17 10 65 23 106
l22 75 37 3 c30 3 40 9 47 28 19 49 13 64 -24 64 l-34 0 24 78 c13 42 24 80
24 85 0 9 -21 8 -82 -5z m-398 -223 c28 -33 -9 -167 -64 -233 -31 -35 -79 -44
-90 -16 -13 34 -5 101 20 154 44 95 101 135 134 95z"/>
<path d="M3908 560 c-46 -25 -103 -94 -123 -150 -8 -23 -15 -70 -15 -104 0
-106 49 -156 155 -156 64 0 115 22 175 77 32 28 40 42 40 69 l0 34 -55 -45
c-43 -34 -64 -45 -91 -45 -46 0 -70 14 -89 50 -18 35 -19 40 -2 40 27 0 155
69 175 95 33 41 30 107 -4 134 -35 27 -115 28 -166 1z"/>
</g>
</svg>
